# xmcd
#
# Track frame offsets:
#	150
#	9665
#	24965
#	35842
#	47712
#	65582
#	77162
#	96640
#	108240
#	118090
#	130950
#	143012
#
# Disc length: 2198 seconds
#
# Revision: 0
# Processed by: cddbd v1.4PL0 Copyright (c) Steve Scherf et al.
# Submitted via: EasyCDDAExtractor 4.5.0.2
#
DISCID=a608940c
DTITLE=Felicity - New Shadow
DYEAR=2001
DGENRE=Country
TTITLE0=You Can't Break My Heart
TTITLE1=New Shadow
TTITLE2=Swingtown
TTITLE3=I Remember You
TTITLE4=Planet of Love
TTITLE5=Live A Little
TTITLE6=Western Lullaby
TTITLE7=Less of Me More Often
TTITLE8=Too Many Secrets
TTITLE9=In My Dreams
TTITLE10=Every Fool Has A Rainbow
TTITLE11=This Is Life
EXTD=
EXTT0=
EXTT1=
EXTT2=
EXTT3=
EXTT4=
EXTT5=
EXTT6=
EXTT7=
EXTT8=
EXTT9=
EXTT10=
EXTT11=
PLAYORDER=
